<svg width="70" height="30" viewBox="0 0 70 30" fill="none" xmlns="http://www.w3.org/2000/svg">
<path d="M14.1713 5.40873C20.4975 3.71364 26.2864 9.50248 24.5913 15.8286L23.4304 20.1611C21.7353 26.4873 13.8276 28.6062 9.19651 23.9751L6.02492 20.8035C1.39384 16.1724 3.5127 8.26471 9.83886 6.56962L14.1713 5.40873Z" fill="#5EF090"/>
<path d="M40.0941 13.3643C40.0941 14.2999 39.7715 15.0797 39.1262 15.7035C38.4916 16.3165 37.5183 16.623 36.2062 16.623H34.0445V21.3175H32.5764V10.0732H36.2062C37.4753 10.0732 38.4379 10.3798 39.0939 10.9928C39.7607 11.6058 40.0941 12.3963 40.0941 13.3643ZM36.2062 15.4131C37.0236 15.4131 37.6259 15.2356 38.013 14.8807C38.4002 14.5258 38.5938 14.0203 38.5938 13.3643C38.5938 11.9769 37.7979 11.2832 36.2062 11.2832H34.0445V15.4131H36.2062Z" fill="white"/>
<path d="M44.516 9.37955V21.3175H43.048V9.37955H44.516Z" fill="white"/>
<path d="M47.5988 16.865C47.5988 15.9616 47.7817 15.1711 48.1474 14.4935C48.513 13.8052 49.0131 13.2728 49.6477 12.8964C50.293 12.52 51.0082 12.3318 51.7933 12.3318C52.5676 12.3318 53.2398 12.4985 53.8098 12.8319C54.3798 13.1653 54.8047 13.5847 55.0843 14.0902V12.477H56.5685V21.3175H55.0843V19.672C54.7939 20.1883 54.3583 20.6185 53.7776 20.9626C53.2076 21.296 52.5407 21.4627 51.7771 21.4627C50.992 21.4627 50.2822 21.2691 49.6477 20.882C49.0131 20.4948 48.513 19.9517 48.1474 19.2526C47.7817 18.5535 47.5988 17.7577 47.5988 16.865ZM55.0843 16.8811C55.0843 16.2143 54.9499 15.6336 54.681 15.1388C54.4121 14.6441 54.0464 14.2677 53.584 14.0096C53.1323 13.7407 52.6322 13.6062 52.0837 13.6062C51.5352 13.6062 51.0351 13.7353 50.5833 13.9934C50.1316 14.2515 49.7713 14.628 49.5025 15.1227C49.2336 15.6174 49.0992 16.1982 49.0992 16.865C49.0992 17.5426 49.2336 18.1341 49.5025 18.6396C49.7713 19.1343 50.1316 19.5161 50.5833 19.785C51.0351 20.0431 51.5352 20.1721 52.0837 20.1721C52.6322 20.1721 53.1323 20.0431 53.584 19.785C54.0464 19.5161 54.4121 19.1343 54.681 18.6396C54.9499 18.1341 55.0843 17.5479 55.0843 16.8811Z" fill="white"/>
<path d="M60.9368 11.0412C60.6572 11.0412 60.4206 10.9444 60.227 10.7508C60.0334 10.5572 59.9366 10.3206 59.9366 10.041C59.9366 9.76135 60.0334 9.52474 60.227 9.33116C60.4206 9.13757 60.6572 9.04077 60.9368 9.04077C61.2057 9.04077 61.4316 9.13757 61.6144 9.33116C61.808 9.52474 61.9048 9.76135 61.9048 10.041C61.9048 10.3206 61.808 10.5572 61.6144 10.7508C61.4316 10.9444 61.2057 11.0412 60.9368 11.0412ZM61.6467 12.477V21.3175H60.1786V12.477H61.6467Z" fill="white"/>
<path d="M67.0687 13.6869V18.8977C67.0687 19.3279 67.1601 19.6344 67.3429 19.8172C67.5257 19.9893 67.843 20.0753 68.2947 20.0753H69.3756V21.3175H68.0527C67.2354 21.3175 66.6223 21.1293 66.2136 20.7529C65.805 20.3765 65.6006 19.7581 65.6006 18.8977V13.6869H64.4552V12.477H65.6006V10.2507H67.0687V12.477H69.3756V13.6869H67.0687Z" fill="white"/>
</svg>
