<svg width="1442" height="1442" viewBox="0 0 1442 1442" fill="none" xmlns="http://www.w3.org/2000/svg">
<path d="M321 701.01H251V721H321V801.01H211L171 761.01V551H251V621H321V701.01Z" fill="white"/>
<path d="M621 801.01H381L341 761.01V621H421V721H441V621H521V721H541V621H621V801.01Z" fill="white"/>
<path d="M721 621H641V801H721V621Z" fill="white"/>
<path d="M721 551H641V601H721V551Z" fill="white"/>
<path d="M891 701.01H821V721H891V801.01H781L741 761.01V551H821V621H891V701.01Z" fill="white"/>
<path d="M1071 701.01H991V721H1071V801.01H951L911 761.01V661.01L951 621H1071V701.01Z" fill="white"/>
<path d="M1271 801.01H1191V701.01H1171V801.01H1091V551H1171V621H1231L1271 661.01V801.01Z" fill="white"/>
<path d="M1241 601H1191V531H1081.21L1030.72 601H941L911 631V601H841V531H621V601H311.5L261 531H151V771L291 911H431V871L471 911H741V871L781 911H911V871L951 911H1201L1291 821V651L1241 601ZM321 701H251V721H321V801H211L171 761V551H251V621H321V701ZM621 801H381L341 761V621H421V721H441V621H521V721H541V621H621V801ZM721 801H641V621H721V801ZM721 601H641V551H721V601ZM891 701H821V721H891V801H781L741 761V551H821V621H891V701ZM1071 701H991V721H1071V801H951L911 761V661L951 621H1071V701ZM1271 801H1191V701H1171V801H1091V551H1171V621H1231L1271 661V801Z" fill="#9146FF"/>
</svg>
